<?xml version="1.0" encoding="UTF-8" standalone="no"?>
<!DOCTYPE svg PUBLIC "-//W3C//DTD SVG 1.1//EN" "http://www.w3.org/Graphics/SVG/1.1/DTD/svg11.dtd">
<svg width="100%" height="100%" viewBox="0 0 3930 1634" version="1.1" xmlns="http://www.w3.org/2000/svg" xmlns:xlink="http://www.w3.org/1999/xlink" xml:space="preserve" xmlns:serif="http://www.serif.com/" style="fill-rule:evenodd;clip-rule:evenodd;stroke-linejoin:round;stroke-miterlimit:2;">
    <g transform="matrix(1,0,0,1,-538.522,-2347.6)">
        <g transform="matrix(4.16667,0,0,4.16667,-235.062,-438.19)">
            <path d="M583.6,817.648L514.817,814.454C516.15,814.059 517.52,813.796 518.905,813.669C524.365,813.179 529.84,812.882 535.321,812.78L545.83,812.524C546.828,812.498 547.826,812.453 548.823,812.389C549.219,812.364 549.613,812.316 550.003,812.246L550.174,812.179L550.191,812.156L550.193,812.145L550.146,812.037C550.011,811.922 549.851,811.839 549.679,811.795L548.972,811.618C548.258,811.485 547.539,811.382 546.816,811.309C544.65,811.096 542.479,810.932 540.305,810.818C530.954,810.4 521.604,809.966 512.254,809.517C503.2,809.146 494.14,808.913 485.079,808.815L474.312,808.815C463.797,808.973 453.285,809.315 442.781,809.841C436.089,809.483 429.39,809.269 422.689,809.199C415.373,809.114 408.056,809.071 400.739,809.071L397.663,808.815C396.641,808.817 395.618,808.859 394.599,808.942C393.465,809.042 392.327,809.084 391.188,809.07C386.896,809.072 382.604,809.005 378.313,808.869C376.646,808.834 374.977,808.817 373.309,808.815C374.027,805.608 374.964,802.454 376.113,799.374C378.049,794.013 380.27,788.759 382.767,783.635C384.559,779.974 386.587,776.433 388.837,773.035C389.799,771.557 390.864,770.15 392.025,768.823C412.31,766.683 432.6,764.591 452.895,762.546C460.635,761.739 468.37,760.879 476.098,759.965C485.921,758.857 495.696,757.361 505.4,755.48C513.828,753.848 522.151,751.713 530.324,749.085C538.392,746.464 546.259,743.258 553.862,739.494C562.448,735.176 570.807,730.419 578.906,725.243C579.585,725.252 580.263,725.302 580.936,725.393L584.328,725.865C584.979,725.952 585.634,726.001 586.289,726.013C586.558,726.02 586.827,725.999 587.092,725.95C587.327,725.921 587.547,725.818 587.721,725.656C587.835,725.529 587.892,725.36 587.876,725.19C587.861,724.782 587.814,724.375 587.734,723.975C587.227,721.546 586.631,719.138 585.946,716.754C585.796,716.283 585.68,715.803 585.597,715.316L585.57,714.989L588.133,714.221C589.587,714.247 591.023,714.551 592.363,715.116C593.055,715.416 593.761,715.678 594.481,715.902C594.664,715.963 594.854,716 595.047,716.014C595.224,716.026 595.391,715.931 595.469,715.772C595.515,715.679 595.544,715.578 595.555,715.475C595.588,715.162 595.56,714.845 595.473,714.543C595.35,714.127 595.085,713.769 594.723,713.531C594.508,713.388 594.274,713.275 594.029,713.196C591.865,712.554 589.618,712.238 587.361,712.258C586.364,712.273 585.367,712.31 584.371,712.368C583.522,712.403 582.672,712.422 581.821,712.425C581.107,712.423 580.393,712.466 579.683,712.552C579.039,712.634 578.391,712.677 577.742,712.681L578.012,712.615C578.087,712.582 578.136,712.508 578.136,712.426L577.11,712.426C572.971,712.478 568.832,712.569 564.694,712.699C530.254,713.735 495.81,714.667 461.364,715.496C455.242,715.641 449.119,715.73 442.995,715.761L442.248,715.797L431.443,716.573C423.559,717.076 415.682,717.681 407.814,718.387C398.448,719.2 389.084,720.029 379.721,720.872C378.093,721.023 376.469,721.21 374.85,721.432C374.522,721.477 374.197,721.544 373.878,721.632C371.585,722.681 369.057,723.115 366.545,722.89C365.801,722.84 365.062,722.727 364.337,722.552C363.417,722.305 362.47,722.176 361.517,722.167C360.604,722.171 359.705,722.397 358.897,722.824C357.957,723.328 357.109,723.987 356.388,724.773C354.874,726.41 353.494,728.167 352.264,730.027C349.108,734.861 346.017,739.738 342.994,744.657C334.264,758.771 325.718,772.999 317.358,787.336C314.886,791.487 312.599,795.746 310.503,800.099L301.531,818.042C273.367,818.01 245.204,818.338 217.048,819.027C210.889,819.155 204.736,819.503 198.602,820.07C197.28,820.207 195.966,820.404 194.663,820.661C194.086,820.765 193.518,820.916 192.965,821.112C192.533,821.256 192.168,821.552 191.939,821.946C191.773,822.205 191.768,822.537 191.928,822.8C192.099,823.04 192.33,823.23 192.598,823.352C192.955,823.525 193.328,823.661 193.712,823.759C194.521,823.96 195.342,824.105 196.17,824.196C193.973,824.393 191.786,824.679 189.612,825.052C188.89,825.158 188.179,825.328 187.487,825.557C187.138,825.673 186.803,825.828 186.49,826.02C186.301,826.135 186.13,826.278 185.984,826.443C185.77,826.673 185.655,826.977 185.66,827.291C185.664,827.624 185.764,827.95 185.949,828.228C186.113,828.47 186.318,828.683 186.555,828.856C186.939,829.136 187.358,829.363 187.802,829.532C188.654,829.859 189.537,830.1 190.437,830.249C193.252,830.686 196.093,830.925 198.942,830.963C202.289,831.07 205.638,831.121 208.987,831.117C206.576,831.414 204.157,831.637 201.732,831.788C201.345,831.814 200.96,831.862 200.579,831.935C200.413,831.966 200.25,832.013 200.092,832.074C199.993,832.109 199.903,832.165 199.828,832.239C199.785,832.282 199.761,832.339 199.76,832.4C199.77,832.542 199.836,832.675 199.943,832.769C200.178,832.981 200.451,833.147 200.747,833.257C201.17,833.446 201.615,833.579 202.072,833.652C202.818,833.788 203.57,833.889 204.325,833.956C209.369,834.366 214.423,834.647 219.481,834.798C229.253,835.161 239.03,835.369 248.808,835.42C254.249,835.458 259.689,835.476 265.129,835.475C264.685,836.585 264.374,837.743 264.202,838.926C263.948,840.583 263.83,842.258 263.847,843.934C263.861,846.138 264.231,848.326 264.944,850.411C265.35,851.618 265.841,852.794 266.412,853.931C266.941,854.981 267.644,855.932 268.493,856.746C269.585,857.798 270.828,858.683 272.18,859.372C274.021,860.316 275.953,861.07 277.947,861.623C272.386,871.808 267.162,882.173 262.281,892.701C260.459,896.553 258.833,900.496 257.411,904.513C256.682,906.513 256.141,908.578 255.796,910.679C255.699,911.328 255.649,911.982 255.645,912.637C255.706,913.18 255.808,913.717 255.949,914.245C256.637,916.671 257.501,919.043 258.535,921.344C260.658,926.187 263.021,930.922 265.614,935.531C269.776,943.037 274.27,950.354 279.083,957.461C282.513,962.553 286.273,967.416 290.336,972.02C292.501,974.468 294.829,976.768 297.303,978.904C298.468,979.911 299.722,980.812 301.048,981.597C302.81,982.704 304.835,983.323 306.914,983.39C307.84,983.381 308.751,983.159 309.577,982.741C310.083,982.49 310.565,982.192 311.015,981.852C313.048,980.907 315.16,980.144 317.327,979.571C319.934,978.924 322.557,978.346 325.194,977.838C332.249,976.319 339.238,974.505 346.142,972.403C360.098,968.186 374.036,963.909 387.955,959.571C396.411,957.003 404.914,954.589 413.459,952.331C415.595,951.741 417.763,951.275 419.952,950.934C420.381,950.872 420.814,950.839 421.248,950.834C423.583,950.899 425.913,950.578 428.144,949.883C428.871,949.64 429.567,949.313 430.219,948.911C430.94,948.467 431.649,948.002 432.345,947.519C432.628,947.323 432.903,947.114 433.167,946.892C433.321,946.779 433.451,946.637 433.552,946.475C443.288,945.629 453.03,944.86 462.777,944.167C468.495,943.651 474.221,943.224 479.953,942.887C479.95,942.834 479.928,942.784 479.891,942.746C479.831,942.687 479.76,942.639 479.683,942.606L479.33,942.478L478.559,942.313C477.922,942.215 477.28,942.144 476.637,942.099C474.199,941.931 471.757,941.852 469.314,941.862L459.572,941.862C454.497,941.88 449.423,941.757 444.356,941.494C443.38,941.436 442.405,941.355 441.434,941.25C441.062,941.207 440.693,941.145 440.327,941.065L439.828,940.916C439.703,940.877 439.59,940.806 439.499,940.71C439.467,940.674 439.449,940.628 439.448,940.579C439.447,940.411 439.465,940.244 439.503,940.08C439.573,939.71 439.831,939.403 440.183,939.27C440.318,939.218 440.46,939.184 440.603,939.169C441.412,939.083 442.225,939.04 443.039,939.041C443.146,939.134 443.277,939.194 443.418,939.214C443.758,939.277 444.103,939.305 444.449,939.299L451.753,939.299C452.211,939.304 452.669,939.281 453.124,939.232C453.368,939.212 453.606,939.154 453.831,939.059C453.917,939.024 453.99,938.962 454.038,938.883L454.061,938.784C453.93,938.683 453.779,938.61 453.618,938.571L452.71,938.322C451.087,937.971 449.447,937.699 447.798,937.506L443.874,936.998C444.887,936.98 445.879,936.707 446.759,936.205C447.144,935.968 447.489,935.67 447.78,935.323C448.124,934.903 448.505,934.514 448.919,934.162C449.114,933.995 449.331,933.856 449.565,933.749C449.73,933.675 449.911,933.644 450.092,933.659C451.292,933.697 452.487,933.825 453.668,934.042C455.067,934.295 456.485,934.425 457.906,934.428C458.48,934.432 459.053,934.383 459.618,934.282C460.018,934.212 460.405,934.087 460.771,933.911C461.039,933.783 461.283,933.611 461.495,933.403C461.39,933.306 461.311,933.185 461.264,933.05L461.239,932.888L461.239,930.838C461.344,930.842 461.444,930.88 461.526,930.944C461.741,931.113 461.921,931.32 462.059,931.556C462.228,931.82 462.382,932.094 462.52,932.375C462.648,932.636 462.804,932.883 462.985,933.11C463.244,933.449 463.601,933.702 464.007,933.834C464.191,933.889 464.381,933.916 464.573,933.915C466.105,933.952 467.633,934.078 469.151,934.294C471.202,934.561 473.269,934.691 475.337,934.683L475.664,934.546C475.804,934.478 475.924,934.374 476.012,934.246C476.075,934.147 476.109,934.032 476.107,933.915C476.102,933.83 476.059,933.751 475.991,933.698C475.857,933.593 475.704,933.516 475.54,933.47L474.951,933.318C474.513,933.234 474.072,933.17 473.628,933.126L467.044,932.445C466.045,932.329 465.049,932.185 464.058,932.015C463.622,931.951 463.194,931.842 462.78,931.689C462.57,931.611 462.371,931.505 462.189,931.372C461.92,931.194 461.757,930.893 461.755,930.569L461.808,930.526C461.987,930.462 462.174,930.422 462.363,930.407L463.484,930.308C464.437,930.252 465.392,930.212 466.346,930.187C471.479,930.098 476.612,930.038 481.745,930.008L485.181,929.912C485.827,929.886 486.473,929.829 487.114,929.742C487.409,929.701 487.701,929.64 487.988,929.559C488.186,929.513 488.371,929.425 488.532,929.301C488.614,929.24 488.664,929.146 488.669,929.044C488.667,928.693 488.701,928.343 488.771,927.998C488.858,927.512 489.091,927.064 489.438,926.712C489.601,926.558 489.787,926.43 489.989,926.332C490.598,926.049 491.249,925.867 491.916,925.794L492.294,925.758C489.56,928.956 486.933,932.245 484.42,935.619C483.47,936.89 482.578,938.203 481.746,939.554C482.562,939.244 483.324,938.807 484.003,938.258C485.218,937.308 486.382,936.296 487.492,935.225C490.679,932.189 493.793,929.077 496.832,925.892L497.082,925.911C497.604,925.947 498.126,925.965 498.649,925.967C498.992,925.972 499.335,925.944 499.673,925.883C499.862,925.849 500.044,925.789 500.216,925.705C500.467,925.595 500.648,925.37 500.703,925.102C500.756,924.777 500.624,924.45 500.36,924.253C500.217,924.137 500.059,924.04 499.89,923.966C499.597,923.836 499.291,923.736 498.977,923.666L498.939,923.659L499.164,923.417C501.776,920.638 504.429,917.899 507.123,915.2C507.227,915.206 507.315,915.28 507.339,915.382C507.389,915.561 507.395,915.749 507.358,915.931C507.301,916.192 507.211,916.445 507.09,916.683C506.786,917.296 506.433,917.884 506.036,918.441C501.346,924.761 496.319,930.824 490.977,936.604C486.041,941.942 481.386,947.534 477.031,953.357C476.314,954.304 475.671,955.304 475.107,956.35C474.883,956.757 474.715,957.193 474.608,957.646C474.544,957.88 474.547,958.127 474.617,958.359C474.643,958.454 474.727,958.52 474.825,958.525C475.142,958.36 475.448,958.172 475.738,957.963C477.271,956.823 478.73,955.585 480.106,954.259C484.268,950.419 488.413,946.56 492.541,942.683C496.267,939.083 499.966,935.455 503.637,931.799C507.635,927.914 511.65,924.047 515.684,920.2L519.59,916.35L520.736,915.29C520.875,915.166 521.024,915.055 521.181,914.956L521.223,914.944C520.278,916.732 519.104,918.389 517.73,919.872C517.421,920.082 517.132,920.32 516.867,920.583L516.983,920.664C515.043,922.705 513.038,924.683 510.97,926.595C509.274,928.219 507.594,929.859 505.929,931.516C505.515,931.877 505.185,932.324 504.964,932.826C504.694,933.43 504.45,934.045 504.231,934.669C503.851,935.707 503.427,936.729 502.96,937.73C502.678,938.317 502.356,938.883 501.997,939.426C501.834,939.676 501.638,939.904 501.415,940.102C501.084,940.406 500.652,940.576 500.202,940.579C498.029,942.953 495.976,945.434 494.051,948.013C493.35,948.936 492.72,949.911 492.166,950.929C491.772,951.648 491.458,952.409 491.232,953.198C490.973,954.036 490.909,954.921 491.044,955.788C491.1,956.176 491.252,956.544 491.488,956.857C491.716,957.146 491.87,957.485 491.937,957.847C492.029,958.402 492.021,958.969 491.913,959.521C491.753,960.373 491.482,961.2 491.105,961.981C490.293,963.705 489.434,965.407 488.528,967.083C488.086,967.94 487.662,968.805 487.255,969.679C486.878,970.465 486.605,971.296 486.445,972.153C486.306,972.845 486.334,973.561 486.528,974.24C486.775,974.951 487.258,975.557 487.897,975.956L488.216,975.905C488.431,975.843 488.639,975.761 488.84,975.662C489.291,975.439 489.73,975.191 490.153,974.917C491.14,974.283 492.103,973.61 493.039,972.901C495.837,970.802 498.567,968.616 501.227,966.344C504.499,963.522 507.903,960.856 511.428,958.355C512.121,957.875 512.85,957.449 513.61,957.081C513.906,956.935 514.22,956.826 514.543,956.757C514.688,956.725 514.838,956.721 514.984,956.746C515.152,956.774 515.283,956.905 515.311,957.073L515.326,957.255L515.193,957.506L514.723,958.194C513.629,959.687 512.512,961.163 511.374,962.622C506.023,969.447 500.722,976.311 495.471,983.212L493.566,985.839L493.055,986.637L493.027,986.709L493.026,986.723C493.237,986.707 493.441,986.644 493.625,986.537C493.865,986.414 494.098,986.275 494.32,986.12C495.163,985.519 495.969,984.868 496.736,984.172C503.228,978.12 509.749,972.1 516.3,966.112C517.538,964.95 518.83,963.847 520.172,962.806C520.632,962.445 521.121,962.122 521.633,961.841C521.826,961.732 522.033,961.651 522.249,961.6C522.319,961.596 522.388,961.619 522.442,961.664C522.489,961.721 522.512,961.793 522.506,961.866C522.5,961.993 522.476,962.118 522.435,962.238C522.325,962.571 522.188,962.895 522.024,963.206C521.572,964.078 521.08,964.929 520.549,965.756C518.999,968.173 517.357,970.53 515.627,972.822L504.902,987.386C502.435,990.498 500.082,993.699 497.848,996.982C497.302,997.801 496.785,998.639 496.296,999.494C496.128,999.776 495.988,1000.07 495.879,1000.38L495.844,1000.57C496.009,1000.53 496.17,1000.48 496.325,1000.41C496.596,1000.29 496.86,1000.15 497.114,999.999C498.421,999.17 499.666,998.248 500.839,997.238C507.371,991.697 513.741,985.968 519.943,980.059C527.211,973.478 534.364,966.771 541.399,959.941C552.248,949.256 562.705,938.181 572.75,926.737L573.277,926.108C574.737,924.521 576.236,922.97 577.774,921.458C584.127,915.071 590.604,908.809 597.204,902.677C598.83,901.135 600.543,899.687 602.335,898.342C602.593,898.154 602.862,897.983 603.141,897.83C601.972,898.458 600.82,899.117 599.687,899.808C595.976,902.053 592.185,904.163 588.321,906.133C587.676,906.45 587.021,906.747 586.357,907.024C585.973,907.186 585.578,907.319 585.173,907.421C584.967,907.475 584.755,907.506 584.542,907.511C584.402,907.519 584.265,907.473 584.157,907.383C584.1,907.324 584.061,907.248 584.046,907.167L584.03,906.998C588.542,903.104 593.319,899.528 598.326,896.295L601.331,894.307C601.74,894.04 602.127,893.741 602.488,893.411C603.583,892.571 604.614,891.651 605.573,890.658C610.419,885.705 615.126,880.618 619.689,875.402C626.919,867.187 634.088,858.92 641.197,850.6C642.185,850.397 643.182,850.246 644.186,850.147C644.726,850.106 645.268,850.086 645.811,850.088L707.849,850.088L707.849,896.231C707.878,898.675 708.026,901.117 708.294,903.547C709.325,913.499 711.06,923.367 713.484,933.074C714.259,936.144 715.163,939.18 716.194,942.174C716.636,943.528 717.193,944.841 717.856,946.101C718.188,946.733 718.59,947.326 719.055,947.868C719.326,948.184 719.642,948.458 719.994,948.681C720.402,948.945 720.886,949.07 721.371,949.036C722.863,949.018 724.347,948.805 725.784,948.401C727.403,947.924 728.895,947.091 730.151,945.963C732.145,947.444 734.233,948.795 736.403,950.005C737.79,950.788 739.258,951.42 740.781,951.89C742.519,952.494 744.405,952.529 746.166,951.992C747.932,951.361 749.44,950.164 750.455,948.586C751.211,947.463 751.846,946.263 752.349,945.005C752.962,943.469 753.449,941.884 753.804,940.268C754.354,937.862 754.76,935.424 755.019,932.969C755.573,927.222 755.901,921.455 756.004,915.682C756.263,909.17 756.614,902.662 757.055,896.159C757.66,887.291 758.146,878.415 758.513,869.533L759.376,849.575L780.289,849.184C781.522,849.16 782.754,849.105 783.983,849.018L785.12,848.892C785.363,848.864 785.601,848.808 785.831,848.725C785.905,848.701 785.971,848.657 786.021,848.598C786.044,848.566 786.04,848.521 786.01,848.494C785.943,848.439 785.865,848.399 785.782,848.375L785.444,848.283L784.45,848.111L782.371,847.88C774.714,847.287 767.048,846.826 759.376,846.497C759.358,845.821 759.451,845.145 759.653,844.499C759.776,844.115 759.984,843.764 760.264,843.473C760.402,843.336 760.558,843.219 760.728,843.125C761.519,842.648 762.425,842.397 763.349,842.397C764.218,842.395 765.087,842.435 765.952,842.517L766.606,842.55C766.781,842.553 766.954,842.52 767.115,842.451C767.252,842.394 767.334,842.254 767.315,842.107L767.2,842.019C767.072,841.966 766.937,841.928 766.799,841.908L766.095,841.812C765.4,841.749 764.704,841.707 764.006,841.687C762.549,841.643 761.09,841.623 759.631,841.627L759.631,841.371L770.143,841.371C775.922,841.377 781.701,841.443 787.479,841.57C789.946,841.607 792.413,841.626 794.88,841.627L805.519,841.627C806.452,841.633 807.385,841.598 808.315,841.52C808.639,841.491 808.961,841.444 809.279,841.377C809.522,841.339 809.756,841.252 809.965,841.124C810.065,841.065 810.128,840.959 810.132,840.843C810.125,840.794 810.101,840.748 810.064,840.714C809.989,840.645 809.901,840.591 809.805,840.557L809.421,840.433L808.612,840.274C807.965,840.182 807.316,840.114 806.665,840.069C800.308,839.595 793.939,839.299 787.565,839.183C778.647,838.995 769.73,838.787 760.814,838.559L759.631,838.551L759.631,836.755C764.522,836.878 769.414,836.966 774.306,837.017C791.544,837.156 808.782,837.325 826.02,837.526L831.148,838.038C825.066,847.951 819.633,858.248 814.884,868.864C810.256,879.179 806.083,889.692 802.376,900.372C801.266,903.514 800.175,906.662 799.102,909.816C793.597,923.492 788.682,937.398 784.372,951.495C780.819,963.141 777.968,974.988 775.833,986.975C773.864,998.771 772.561,1010.67 771.93,1022.61L771.93,1023.89C771.919,1029.26 773.675,1034.49 776.928,1038.76C780.352,1043.27 784.514,1047.18 789.237,1050.3C795.543,1054.55 802.549,1057.64 809.933,1059.45C812.616,1060.12 815.367,1060.49 818.133,1060.55C819.662,1060.59 821.19,1060.43 822.675,1060.06C823.734,1059.83 824.727,1059.36 825.581,1058.69C826.188,1058.18 826.634,1057.51 826.861,1056.75C827.04,1056.16 827.195,1055.55 827.325,1054.94C829.436,1044.77 831.896,1034.67 834.702,1024.66C847.016,980.501 862.201,937.195 880.161,895.018C885.322,882.869 890.846,870.879 896.726,859.061C900.15,852.215 903.756,845.462 907.541,838.808C908.933,838.495 910.373,838.469 911.775,838.731C912.034,838.784 912.289,838.853 912.54,838.936C913.304,839.186 914.102,839.316 914.905,839.32L915.471,839.286C916.254,839.172 917.029,839.013 917.794,838.808L974.191,838.808C987.928,838.845 1001.66,838.918 1015.4,839.029L1028.15,839.063L1060.91,839.062C1061.79,839.061 1062.66,839.042 1063.53,839.004C1063.85,838.995 1064.17,838.963 1064.49,838.906L1064.66,838.844L1064.68,838.818L1064.68,838.808C1064.67,838.72 1064.63,838.638 1064.57,838.574L1064.4,838.399C1064.21,838.224 1064,838.061 1063.79,837.911C1063.59,837.778 1063.39,837.664 1063.17,837.57C1062.19,837.167 1061.17,836.857 1060.14,836.644C1055.03,835.606 1049.85,834.953 1044.64,834.691C1042.78,834.587 1040.92,834.507 1039.05,834.45C1040.75,834.285 1042.46,834.199 1044.18,834.193L1048.53,834.193C1051.17,834.173 1053.81,834.26 1056.43,834.454C1058.02,834.612 1059.59,834.793 1061.17,834.995C1062.52,835.143 1063.87,835.217 1065.23,835.218C1067.31,835.205 1069.38,834.859 1071.35,834.193C1086.75,834.017 1102.14,833.458 1117.52,832.517C1119.95,832.395 1122.37,832.184 1124.79,831.887C1125.62,831.78 1126.45,831.622 1127.27,831.412C1127.59,831.33 1127.91,831.223 1128.22,831.093C1128.39,831.029 1128.55,830.933 1128.68,830.809C1128.78,830.716 1128.8,830.563 1128.73,830.443C1128.67,830.34 1128.59,830.252 1128.49,830.189C1128.23,830.023 1127.94,829.898 1127.64,829.819C1126.79,829.588 1125.92,829.401 1125.05,829.26C1122.96,828.971 1120.86,828.65 1118.78,828.297L1118.81,828.226C1118.88,828.172 1118.97,828.137 1119.06,828.124L1119.39,828.076L1120.31,828.041L1122.37,828.297L1124.93,828.041L1120.57,827.271C1118.87,827.252 1117.17,827.196 1115.47,827.105C1114.9,827.076 1114.33,827.01 1113.77,826.907C1113.53,826.871 1113.3,826.798 1113.09,826.691C1113,826.649 1112.93,826.584 1112.88,826.503L1113.14,826.503C1113.44,826.509 1113.75,826.487 1114.05,826.437L1114.29,826.374C1114.58,826.286 1114.88,826.242 1115.19,826.246L1120.57,826.246C1121.5,826.253 1122.44,826.217 1123.37,826.14C1123.69,826.111 1124.01,826.063 1124.33,825.997L1124.79,825.86C1124.92,825.818 1125.04,825.743 1125.12,825.641C1125.16,825.592 1125.18,825.53 1125.18,825.467L1125.13,825.358C1125.07,825.298 1125,825.251 1124.91,825.219L1124.65,825.12L1123.99,824.961C1123.51,824.872 1123.02,824.8 1122.54,824.746C1121.19,824.6 1119.84,824.493 1118.48,824.424C1113.45,824.185 1108.41,824.006 1103.37,823.887C1089.84,823.588 1076.32,823.389 1062.79,823.291C1052.22,823.208 1041.66,823.082 1031.1,822.913C1027.2,821.761 1023.27,820.735 1019.31,819.838L1030.72,819.838C1031.05,819.842 1031.39,819.826 1031.72,819.789C1031.95,819.774 1032.17,819.721 1032.38,819.632C1032.46,819.599 1032.54,819.546 1032.59,819.479C1032.62,819.434 1032.64,819.38 1032.64,819.325L1032.64,819.068C1038.82,819.044 1044.99,819.183 1051.15,819.484C1061.29,819.845 1071.42,820.048 1081.56,820.094C1082.47,820.096 1083.39,820.069 1084.31,820.013L1085.16,819.92C1085.38,819.896 1085.59,819.843 1085.78,819.763C1085.85,819.738 1085.9,819.695 1085.94,819.64L1085.96,819.58C1085.96,819.496 1085.92,819.417 1085.85,819.363C1085.69,819.232 1085.51,819.133 1085.32,819.075C1085.07,818.988 1084.81,818.916 1084.55,818.859L1083.44,818.647L1078.53,817.787L1037,812.659L1037.17,812.516C1037.53,812.281 1037.9,812.073 1038.28,811.891C1038.64,811.657 1039.03,811.47 1039.43,811.336C1039.93,811.168 1040.44,811.053 1040.97,810.992C1041.99,810.879 1043.01,810.842 1044.04,810.88L1049.14,811.063C1050.78,811.114 1052.42,811.127 1054.07,811.103C1054.45,811.089 1054.84,811.051 1055.22,810.991C1055.64,810.913 1056.06,810.871 1056.48,810.866C1055.6,810.593 1054.71,810.339 1053.82,810.104C1051.36,809.453 1048.94,808.651 1046.58,807.699C1046.27,807.576 1045.96,807.433 1045.67,807.271L1045.25,806.992C1045.13,806.902 1045.03,806.779 1044.97,806.638L1044.95,806.507L1044.96,806.474C1045.01,806.43 1045.06,806.397 1045.13,806.379C1045.41,806.286 1045.69,806.217 1045.99,806.174C1046.57,806.072 1047.15,805.986 1047.74,805.915C1050.24,805.617 1052.72,805.258 1055.2,804.841C1057.48,804.466 1059.76,804.053 1062.04,803.602C1062.62,803.496 1063.2,803.354 1063.78,803.177C1064.06,803.088 1064.35,802.976 1064.62,802.842C1064.78,802.763 1064.93,802.669 1065.07,802.56L1065.3,802.32C1065.4,802.197 1065.45,802.047 1065.45,801.892C1065.45,801.572 1065.34,801.262 1065.16,801.001C1065.03,800.801 1064.87,800.617 1064.69,800.455C1064.45,800.229 1064.19,800.024 1063.91,799.842C1059.91,797.412 1055.66,795.411 1051.23,793.873C1045.31,791.795 1039.26,790.087 1033.12,788.76C1026,787.182 1018.81,785.881 1011.59,784.86C999.487,783.171 987.326,781.969 975.132,781.258C962.015,780.484 948.879,780.099 935.739,780.103C938.353,774.739 941.009,769.396 943.709,764.075C947.206,757.089 950.575,750.039 953.813,742.929C954.626,741.206 955.332,739.436 955.929,737.627C956.034,737.288 956.12,736.944 956.186,736.595C956.224,736.403 956.245,736.207 956.248,736.01C956.296,733.849 956.596,731.701 957.143,729.609C957.673,727.373 958.493,725.217 959.581,723.193C959.431,723.199 959.289,723.123 959.211,722.995C959.136,722.861 959.092,722.711 959.081,722.558L959.068,722.295C959.071,722.143 959.056,721.991 959.023,721.842L958.925,721.598C958.825,721.443 958.64,721.366 958.459,721.405L958.198,721.487C958.044,721.556 957.897,721.639 957.759,721.736C957.487,721.924 957.227,722.129 956.982,722.351C956.469,722.815 955.977,723.301 955.509,723.809C951.703,727.945 948.059,732.228 944.586,736.647C942.851,738.841 941.098,741.022 939.327,743.189C942.999,736.311 946.549,729.368 949.975,722.365C951.799,718.623 953.485,714.817 955.032,710.953C955.322,710.227 955.581,709.488 955.807,708.739C955.883,708.494 955.94,708.244 955.977,707.991L955.982,707.73C955.967,707.645 955.901,707.578 955.816,707.563C955.691,707.546 955.564,707.572 955.456,707.636L955.215,707.786C954.986,707.961 954.77,708.155 954.572,708.365C954.095,708.874 953.646,709.407 953.224,709.962C951.142,712.788 949.09,715.637 947.069,718.508C944.353,722.433 941.551,726.298 938.665,730.099C937.918,731.092 937.112,732.038 936.252,732.934C936.413,732.335 936.607,731.744 936.831,731.166L940.409,722.014C941.147,720.141 941.788,718.23 942.329,716.291C942.524,715.617 942.635,714.922 942.66,714.221C942.657,714.043 942.614,713.867 942.533,713.708C942.478,713.604 942.44,713.492 942.42,713.376L942.405,713.196L942.405,712.938C942.293,712.952 942.186,712.995 942.095,713.063L941.729,713.362C941.468,713.612 941.22,713.876 940.986,714.151L940.003,715.367C937.422,718.704 934.746,721.966 931.977,725.15C931.491,725.715 930.963,726.244 930.4,726.733C930.133,726.965 929.842,727.168 929.533,727.338C929.37,727.428 929.194,727.494 929.012,727.532C928.844,727.566 928.67,727.554 928.508,727.496C928.301,727.409 928.136,727.244 928.048,727.038C928.05,726.82 928.074,726.602 928.117,726.388C928.304,725.551 928.582,724.737 928.945,723.96C929.31,723.182 929.588,722.366 929.775,721.527C929.818,721.315 929.841,721.1 929.843,720.885C929.846,720.749 929.829,720.614 929.794,720.483C929.747,720.265 929.553,720.111 929.33,720.117L929.073,720.117C926.159,721.121 923.345,722.398 920.671,723.931C915.381,726.976 910.41,730.542 905.83,734.576C900.128,739.598 894.792,745.021 889.864,750.804C881.905,760.216 874.62,770.178 868.062,780.616C853.486,781.078 838.92,781.815 824.371,782.827C815.251,783.475 806.156,784.441 797.103,785.724C794.833,786.027 792.58,786.445 790.353,786.978C789.486,787.171 788.639,787.444 787.823,787.794C784.915,789.18 782.076,790.704 779.314,792.361C777.171,793.647 775.107,795.061 773.134,796.595C770.041,798.88 767.44,801.767 765.489,805.081C764.44,806.937 763.615,808.911 763.03,810.961C762.787,811.811 762.573,812.668 762.388,813.532L760.144,813.429C760.203,802.223 760.284,791.016 760.387,779.81C760.432,776.692 760.424,773.572 760.365,770.454C759.386,753.75 756.095,737.263 750.583,721.465C747.704,713.04 743.859,704.976 739.127,697.434C735.591,691.771 731.274,686.634 726.305,682.175C722.938,679.318 719.688,676.325 716.564,673.204C715.561,672.188 714.45,671.284 713.252,670.508C711.422,669.287 709.279,668.622 707.079,668.59C705.695,668.602 704.349,669.05 703.234,669.871C697.441,676.6 691.767,683.43 686.214,690.357C669.182,711.622 652.271,732.984 635.481,754.44C627.604,764.397 619.683,774.318 611.717,784.204C611.292,784.484 610.893,784.801 610.523,785.151C609.637,785.965 608.793,786.824 607.993,787.723C604.936,791.144 601.971,794.647 599.101,798.227C595.655,802.488 592.254,806.787 588.901,811.121C586.346,811.293 583.8,811.568 581.268,811.945C580.221,812.104 579.188,812.339 578.176,812.648C577.89,812.735 577.611,812.843 577.34,812.97C577.19,813.035 577.054,813.128 576.938,813.243C576.888,813.292 576.858,813.359 576.853,813.429C576.859,813.569 576.914,813.702 577.007,813.806C577.168,813.987 577.361,814.136 577.577,814.247C577.957,814.449 578.353,814.619 578.762,814.756C580.74,815.384 582.757,815.883 584.8,816.249L583.6,817.648ZM519.641,836.339C535.969,836.976 552.309,837.286 568.649,837.27C566.823,839.705 564.966,842.117 563.079,844.505C561.504,846.612 559.942,848.728 558.395,850.856C557.453,851.848 556.549,852.876 555.685,853.936C549.027,861.992 542.395,870.069 535.789,878.167C532.098,882.694 528.33,887.16 524.489,891.561C523.815,892.332 523.121,893.085 522.405,893.818C522.112,894.125 521.803,894.417 521.481,894.693C512.628,903.52 504.025,912.594 495.683,921.904L494.563,923.155L494.411,923.15L493.332,923.175L484.835,923.561C474.136,923.979 463.434,924.317 452.73,924.573C444.642,924.759 436.55,924.714 428.465,924.437C427.113,924.393 425.764,924.272 424.426,924.075C423.837,923.99 423.257,923.853 422.692,923.665C422.432,923.58 422.185,923.461 421.957,923.311L421.76,923.148C423.388,923.141 425.016,923.067 426.638,922.927C439.633,921.854 452.609,920.563 465.56,919.057L465.608,919.046C460.18,919.013 454.752,918.923 449.326,918.776C428.32,918.354 407.315,917.859 386.312,917.291C371.378,916.983 356.445,916.661 341.511,916.323C335.375,916.182 329.236,916.216 323.102,916.425C321.125,916.472 319.147,916.491 317.169,916.482C317.263,916.368 317.322,916.229 317.34,916.081C317.404,915.706 317.433,915.325 317.426,914.944L317.426,913.407C319.091,910.132 320.97,906.97 323.05,903.942C327.275,897.828 331.286,891.568 335.076,885.175C338.973,878.672 342.247,871.816 344.854,864.698C348.923,864.616 352.99,864.44 357.051,864.17C381.799,862.653 406.54,861.037 431.275,859.323C450.488,857.918 469.696,856.448 488.899,854.914C493.79,854.507 498.674,854.009 503.546,853.419L503.537,853.419C505.129,852.775 506.755,852.219 508.408,851.753C508.899,851.623 509.37,851.425 509.805,851.163C510.498,850.753 511.008,850.092 511.228,849.318C517.349,849.214 523.468,849.031 529.584,848.77C530.523,848.721 531.461,848.643 532.396,848.537C532.714,848.498 533.03,848.447 533.343,848.382C533.56,848.344 533.769,848.27 533.96,848.162L534.028,848.09L534.043,848.03L534.017,847.981C533.95,847.926 533.872,847.886 533.789,847.863L533.451,847.771C533.122,847.7 532.79,847.643 532.457,847.599C531.758,847.507 531.058,847.428 530.357,847.362C525.548,846.926 520.731,846.576 515.909,846.311L510.716,845.985C510.41,845.367 510.068,844.768 509.691,844.192C514.241,843.91 518.796,843.696 523.354,843.552C525.046,843.484 526.738,843.391 528.428,843.273C528.725,843.249 529.02,843.215 529.314,843.169C529.509,843.145 529.698,843.089 529.874,843.005L529.934,842.942C529.947,842.921 529.944,842.894 529.928,842.876C529.881,842.836 529.825,842.808 529.764,842.795C529.525,842.732 529.28,842.69 529.033,842.67C528.361,842.605 527.687,842.559 527.012,842.531C523.546,842.392 520.079,842.261 516.612,842.139C517.535,842.129 518.456,842.059 519.37,841.93C523.069,841.331 526.772,840.753 530.477,840.197L533.918,839.618L534.3,839.576L539.684,839.576C540.617,839.583 541.549,839.547 542.479,839.47C542.803,839.441 543.125,839.393 543.444,839.327C543.687,839.288 543.92,839.202 544.13,839.073C544.226,839.016 544.289,838.916 544.297,838.804C544.289,838.668 544.221,838.542 544.111,838.461C544.023,838.39 543.927,838.331 543.825,838.285C543.629,838.197 543.425,838.127 543.215,838.076C542.783,837.974 542.344,837.898 541.902,837.85C539.252,837.624 536.596,837.473 533.937,837.399C531.111,837.314 528.283,837.271 525.456,837.27L518.918,837.27C519.201,836.995 519.445,836.682 519.641,836.339ZM492.515,813.429C492.189,812.975 491.831,812.546 491.443,812.144C491.038,811.711 490.627,811.284 490.207,810.866C491.98,811.207 493.788,811.336 495.591,811.249C497.39,811.162 499.192,811.162 500.99,811.25C502.049,811.298 503.102,811.438 504.136,811.67C504.541,811.764 504.94,811.881 505.332,812.019C506.063,812.252 506.705,812.7 507.177,813.304C507.377,813.576 507.533,813.877 507.638,814.197L492.515,813.429ZM481.491,811.634C481.87,811.63 482.248,811.682 482.613,811.789C483.219,811.967 483.734,812.371 484.054,812.916L461.752,811.891C461.331,811.877 460.914,811.811 460.509,811.696C460.151,811.603 459.795,811.497 459.444,811.378C459.749,811.384 460.054,811.362 460.355,811.311C460.437,811.296 460.518,811.276 460.597,811.249C460.756,811.195 460.92,811.155 461.087,811.131C461.138,811.125 461.188,811.121 461.239,811.121L481.491,811.634ZM435.09,937.246C435.096,937.491 435.04,937.733 434.927,937.95C434.812,938.157 434.644,938.33 434.44,938.45C434.306,938.532 434.163,938.597 434.013,938.646C433.797,938.713 433.576,938.763 433.353,938.796C432.145,938.965 430.926,939.047 429.707,939.041C429.492,938.634 429.335,938.198 429.243,937.746C429.211,937.581 429.195,937.414 429.194,937.246L435.09,937.246ZM709.796,768.033C710.08,767.776 710.382,767.54 710.7,767.326C710.848,767.226 711.007,767.143 711.174,767.08C711.257,767.049 711.345,767.031 711.433,767.028C711.485,767.026 711.536,767.036 711.583,767.059C711.617,767.077 711.646,767.105 711.664,767.14C711.686,767.185 711.697,767.235 711.695,767.285L708.617,772.412C708.551,778.239 708.423,784.066 708.231,789.891C708.15,792.566 708.108,795.242 708.104,797.919L708.104,810.866L674.523,809.328C680.001,802.006 685.651,794.816 691.469,787.761C696.796,781.265 702.433,775.031 708.362,769.079C708.38,769.078 708.398,769.075 708.415,769.07C708.448,769.06 708.48,769.047 708.511,769.032C708.576,768.999 708.64,768.962 708.7,768.921C708.935,768.758 709.162,768.582 709.378,768.395L709.796,768.033ZM544.296,884.18C543.589,885.183 542.84,886.156 542.05,887.096C538.666,891.017 535.276,894.933 531.878,898.842C527.495,903.882 522.734,908.58 517.635,912.894L532.76,890.078C535.063,888.257 537.452,886.549 539.921,884.961C541.06,884.194 542.27,883.538 543.534,883.002C543.83,882.884 544.135,882.79 544.446,882.718C544.649,882.671 544.856,882.646 545.065,882.644L545.578,882.644C545.101,883.112 544.672,883.627 544.296,884.18ZM537.174,913.366C533.408,917.369 529.612,921.342 525.783,925.285C520.04,931.319 514.272,937.329 508.478,943.314C506.712,945.162 504.965,947.028 503.236,948.912C502.837,949.34 502.429,949.761 502.014,950.173C501.91,950.274 501.804,950.373 501.696,950.467C501.663,950.495 501.63,950.522 501.595,950.547C501.574,950.564 501.551,950.578 501.526,950.59C501.517,950.595 501.507,950.597 501.497,950.597C501.491,950.596 501.486,950.591 501.485,950.585L501.485,950.58C501.486,950.524 501.494,950.468 501.508,950.414C501.535,950.316 501.57,950.22 501.613,950.128C501.7,949.938 501.799,949.755 501.908,949.577C502.348,948.884 502.823,948.214 503.332,947.57C506.052,944.206 508.862,940.916 511.76,937.705C519.57,928.953 527.503,920.312 535.558,911.784C536.667,910.579 537.781,909.378 538.898,908.181C539.24,907.82 539.59,907.467 539.949,907.124C540.044,907.034 540.143,906.947 540.244,906.864C540.282,906.833 540.322,906.804 540.364,906.777C540.385,906.762 540.407,906.751 540.431,906.743C540.437,906.742 540.443,906.741 540.449,906.741C540.795,906.737 541.14,906.757 541.483,906.799C541.669,906.822 541.853,906.862 542.031,906.92C542.13,906.952 542.225,906.997 542.312,907.053C542.368,907.089 542.418,907.134 542.459,907.186C542.475,907.207 542.49,907.229 542.502,907.253C542.551,907.36 542.619,907.457 542.701,907.542C542.851,907.692 543.057,907.773 543.27,907.766C542.607,908.093 542.001,908.527 541.477,909.048L540.449,910.074C540.435,910.075 540.421,910.079 540.409,910.085C540.393,910.092 540.378,910.101 540.364,910.11C540.322,910.137 540.282,910.166 540.244,910.197C540.143,910.28 540.045,910.367 539.949,910.457C539.591,910.801 539.241,911.154 538.898,911.514C538.318,912.126 537.743,912.744 537.174,913.366ZM561.215,919.43C561.222,919.696 561.166,919.96 561.052,920.2C560.947,920.409 560.788,920.585 560.592,920.713C560.309,920.889 559.99,921.002 559.659,921.043C559.41,921.079 559.159,921.097 558.907,921.096C558.246,921.09 557.585,921.129 556.929,921.215C556.898,921.219 556.867,921.224 556.837,921.23C556.804,921.237 556.772,921.247 556.742,921.262C556.679,921.293 556.623,921.337 556.576,921.389C556.532,921.438 556.494,921.492 556.462,921.55C556.415,921.633 556.376,921.721 556.345,921.812C556.265,922.057 556.209,922.309 556.177,922.565C556.113,923.099 556.083,923.636 556.087,924.174L555.062,924.174C554.802,924.175 554.543,924.148 554.288,924.095C553.913,924.022 553.569,923.838 553.3,923.565C553.184,923.442 553.086,923.301 553.012,923.148C553.033,921.829 553.303,920.525 553.808,919.306C554.351,917.879 555.12,916.548 556.086,915.365C556.67,914.652 557.443,914.118 558.316,913.826C558.674,913.716 559.046,913.66 559.42,913.662C559.643,913.659 559.866,913.675 560.087,913.711C560.215,913.731 560.339,913.766 560.459,913.814C560.533,913.845 560.602,913.887 560.664,913.938C560.78,914.033 560.845,914.177 560.84,914.327C560.839,914.362 560.836,914.397 560.83,914.432C560.814,914.515 560.814,914.6 560.829,914.683C560.848,914.785 560.899,914.878 560.975,914.948C561.041,915.007 561.118,915.053 561.201,915.085C561.342,915.138 561.491,915.172 561.642,915.184C561.755,915.195 561.869,915.2 561.983,915.2C561.66,916.229 561.426,917.284 561.284,918.354C561.24,918.711 561.217,919.07 561.215,919.43ZM571.982,898.794C572.45,898.147 573.064,897.619 573.775,897.256C574.067,897.255 574.359,897.274 574.648,897.314C574.843,897.339 575.035,897.387 575.22,897.455C575.345,897.5 575.463,897.563 575.571,897.641C575.862,897.871 576.141,898.116 576.407,898.375C576.73,898.682 577.05,898.993 577.366,899.307C577.388,900.104 577.113,900.882 576.594,901.487C576.098,902.074 575.488,902.552 574.801,902.895C574.092,903.422 573.316,903.853 572.495,904.178C572.425,904.177 572.355,904.163 572.29,904.136C572.198,904.098 572.112,904.046 572.036,903.982C571.904,903.869 571.785,903.741 571.681,903.602C571.481,903.33 571.303,903.043 571.148,902.743C570.832,902.121 570.55,901.482 570.303,900.829C570.175,900.494 570.051,900.158 569.932,899.819C570.743,899.839 571.511,899.455 571.982,898.794ZM502.483,941.765C506.616,936.88 510.9,932.124 515.327,927.505C515.326,927.558 515.317,927.61 515.302,927.661C515.269,927.776 515.226,927.888 515.174,927.996C515.049,928.259 514.911,928.516 514.759,928.765C513.681,930.469 512.522,932.121 511.288,933.715C509.347,936.136 507.428,938.575 505.532,941.03C505.22,941.444 504.918,941.866 504.626,942.294C504.55,942.406 504.479,942.52 504.411,942.637C504.383,942.685 504.357,942.736 504.334,942.787C504.325,942.808 504.316,942.831 504.31,942.853C504.307,942.864 504.305,942.876 504.305,942.887C504.304,943.027 504.271,943.165 504.208,943.29C504.114,943.475 503.986,943.64 503.832,943.778C503.533,944.047 503.199,944.275 502.839,944.454C501.953,944.94 500.958,945.195 499.947,945.195C499.981,945.097 500.024,945.003 500.075,944.913C500.383,944.381 500.737,943.877 501.131,943.405C501.574,942.852 502.025,942.305 502.483,941.765ZM563.008,909.561C562.904,909.659 562.824,909.782 562.777,909.917C562.761,909.968 562.753,910.021 562.753,910.074C562.614,910.219 562.46,910.35 562.294,910.465C562.222,910.515 562.143,910.553 562.058,910.577C562.034,910.583 562.009,910.586 561.983,910.586C561.804,910.581 561.629,910.535 561.47,910.451C561.164,910.288 560.886,910.077 560.647,909.825C560.114,909.283 559.639,908.688 559.229,908.047C559.121,907.881 559.031,907.702 558.96,907.516C558.943,907.467 558.929,907.417 558.919,907.366C558.909,907.309 558.905,907.25 558.908,907.192C558.907,906.955 558.924,906.718 558.96,906.484C558.978,906.363 559.011,906.246 559.059,906.133C559.084,906.074 559.12,906.019 559.165,905.973C559.165,905.944 559.168,905.916 559.173,905.888C559.181,905.847 559.201,905.809 559.23,905.779C559.26,905.75 559.297,905.731 559.338,905.723C559.365,905.718 559.392,905.715 559.42,905.716C560.119,905.69 560.812,905.841 561.437,906.155C561.92,906.419 562.311,906.825 562.557,907.318C562.71,907.619 562.821,907.94 562.886,908.272C562.97,908.697 563.011,909.128 563.008,909.561ZM537.631,936.991C537.631,936.97 537.635,936.949 537.641,936.929C537.651,936.899 537.664,936.871 537.681,936.845C537.709,936.801 537.74,936.76 537.776,936.722C537.84,936.653 537.909,936.588 537.982,936.529C538.116,936.419 538.255,936.317 538.399,936.221C538.52,936.106 538.673,936.029 538.837,935.998C538.946,935.976 539.057,935.965 539.169,935.966C539.88,936.699 540.616,937.409 541.375,938.092C541.448,938.157 541.524,938.217 541.604,938.271C541.767,938.378 541.888,938.538 541.945,938.724C541.995,938.9 542.003,939.086 541.969,939.266C541.935,939.455 541.835,939.627 541.687,939.749C541.562,939.85 541.417,939.924 541.262,939.967C540.997,940.039 540.724,940.073 540.449,940.067C539.514,940.052 538.627,939.648 538.002,938.953C537.768,938.696 537.636,938.363 537.631,938.016L537.631,936.991ZM526.01,956.538C526.393,955.978 526.793,955.43 527.21,954.894C527.444,954.588 527.697,954.298 527.968,954.024C528.1,953.886 528.245,953.762 528.402,953.654C528.457,953.655 528.512,953.661 528.565,953.673C528.776,953.727 528.979,953.806 529.17,953.909C529.321,954.062 529.494,954.192 529.683,954.294C529.737,954.322 529.787,954.357 529.832,954.399C529.896,954.459 529.954,954.527 530.004,954.601C530.077,954.707 530.141,954.819 530.197,954.934C529.927,955.045 529.671,955.186 529.432,955.354C528.606,955.962 527.871,956.684 527.249,957.5C526.626,958.314 525.889,959.037 525.063,959.644C524.824,959.812 524.568,959.952 524.299,960.063C524.3,959.926 524.318,959.789 524.351,959.656C524.401,959.45 524.468,959.248 524.551,959.052C524.95,958.167 525.439,957.324 526.01,956.538ZM516.097,946.988C514.819,948.28 513.514,949.544 512.183,950.781C511.889,951.046 511.586,951.3 511.273,951.543C511.164,951.627 511.049,951.705 510.93,951.777C510.894,951.797 510.858,951.816 510.82,951.832C510.799,951.841 510.777,951.848 510.755,951.854C510.741,951.857 510.728,951.859 510.714,951.859C510.708,951.859 510.702,951.858 510.696,951.857C510.69,951.856 510.685,951.854 510.679,951.851C510.672,951.846 510.667,951.84 510.663,951.832C510.661,951.827 510.659,951.82 510.658,951.814C510.658,951.81 510.658,951.807 510.658,951.803C510.658,951.794 510.659,951.785 510.66,951.776C510.664,951.757 510.669,951.738 510.676,951.719C510.693,951.674 510.714,951.63 510.737,951.587C510.791,951.491 510.849,951.398 510.911,951.308C511.04,951.12 511.175,950.936 511.315,950.756C511.965,949.924 512.619,949.096 513.277,948.271C514.114,947.076 515.058,945.96 516.097,944.937C516.464,945.133 516.799,945.382 517.092,945.677C517.159,945.741 517.219,945.811 517.271,945.887C517.338,945.985 517.376,946.101 517.378,946.22L516.097,946.988ZM545.578,926.479C545.503,926.478 545.43,926.463 545.362,926.433C545.254,926.387 545.154,926.325 545.065,926.248C544.895,926.102 544.74,925.938 544.605,925.758L543.987,924.897C543.851,924.718 543.697,924.553 543.526,924.406C543.437,924.329 543.337,924.266 543.229,924.219C543.161,924.19 543.088,924.175 543.015,924.174L543.527,923.661C543.765,923.431 544.066,923.276 544.392,923.215C544.613,923.169 544.839,923.147 545.065,923.148C545.064,923.262 545.075,923.375 545.098,923.487C545.128,923.649 545.206,923.798 545.32,923.916C545.319,924.036 545.326,924.155 545.341,924.273C545.349,924.332 545.362,924.39 545.382,924.446C545.393,924.476 545.408,924.505 545.427,924.531C545.434,924.54 545.441,924.549 545.45,924.556C545.479,924.59 545.501,924.63 545.515,924.672C545.545,924.764 545.563,924.859 545.568,924.955C545.575,925.036 545.578,925.118 545.578,925.199L545.578,926.479ZM535.579,919.558C535.635,919.558 535.691,919.563 535.746,919.575C535.828,919.59 535.904,919.629 535.964,919.687C536.022,919.747 536.061,919.823 536.077,919.904C536.088,919.959 536.094,920.015 536.093,920.071L536.093,920.328C536.092,920.374 536.083,920.419 536.065,920.462C536.033,920.541 535.99,920.617 535.939,920.686C535.83,920.832 535.71,920.969 535.579,921.096C535.325,921.101 535.072,921.085 534.821,921.048C534.766,921.039 534.71,921.026 534.656,921.01C534.621,920.999 534.586,920.985 534.553,920.968C534.521,920.951 534.49,920.929 534.464,920.903C534.397,920.841 534.336,920.773 534.28,920.7C534.133,920.511 533.996,920.314 533.869,920.11C533.752,919.928 533.639,919.744 533.528,919.558L535.579,919.558ZM928.56,775.489C932.42,769.666 936.207,763.795 939.919,757.877C943.715,751.94 947.534,746.018 951.377,740.111C951.374,740.21 951.359,740.309 951.333,740.405C951.271,740.64 951.193,740.871 951.099,741.094C950.85,741.695 950.576,742.284 950.276,742.861C948.782,745.665 947.22,748.433 945.591,751.161C940.784,759.406 935.697,767.484 930.339,775.382C929.851,776.09 929.349,776.788 928.833,777.476C928.722,777.621 928.606,777.762 928.486,777.9C928.454,777.935 928.421,777.969 928.386,778.002C928.368,778.019 928.348,778.034 928.326,778.046C928.316,778.051 928.305,778.053 928.294,778.052C928.186,778.052 928.077,778.047 927.969,778.037C927.904,778.03 927.839,778.019 927.775,778.003C927.737,777.993 927.7,777.98 927.664,777.963C927.641,777.952 927.62,777.939 927.6,777.923C927.56,777.893 927.535,777.846 927.535,777.795C927.536,777.738 927.512,777.684 927.469,777.646C927.44,777.621 927.406,777.602 927.37,777.589C927.307,777.566 927.241,777.552 927.174,777.547C927.124,777.542 927.073,777.54 927.023,777.54C927.025,777.421 927.062,777.306 927.13,777.209C927.173,777.143 927.224,777.082 927.28,777.027C927.405,776.896 927.514,776.751 927.606,776.595C927.673,776.485 927.735,776.372 927.793,776.257C927.956,775.923 928.226,775.652 928.56,775.489ZM933.85,750.442C930.468,755.602 926.931,760.66 923.245,765.608C923.143,765.744 923.035,765.876 922.922,766.003C922.924,765.939 922.934,765.875 922.952,765.813C922.996,765.655 923.052,765.5 923.12,765.351C923.301,764.941 923.501,764.539 923.719,764.147C925.363,761.265 927.055,758.411 928.795,755.586C929.714,754.061 930.611,752.523 931.487,750.973C931.672,750.641 931.849,750.304 932.016,749.962C932.053,749.886 932.086,749.808 932.117,749.729C932.128,749.699 932.138,749.668 932.146,749.637C932.149,749.624 932.151,749.611 932.151,749.597C932.157,749.354 932.231,749.117 932.364,748.912C932.463,748.75 932.58,748.599 932.711,748.462C933.599,747.564 934.75,746.973 935.997,746.777C935.937,746.942 935.866,747.102 935.784,747.257C935.191,748.349 934.546,749.412 933.85,750.442ZM925.252,732.249C924.85,733.059 924.379,733.833 923.844,734.563C923.726,734.718 923.598,734.866 923.46,735.005C923.373,735.092 923.279,735.171 923.177,735.24C923.063,735.301 922.939,735.343 922.811,735.364C922.733,735.376 922.654,735.37 922.578,735.347C922.514,735.326 922.456,735.289 922.409,735.24C922.332,735.239 922.256,735.223 922.185,735.192C922.089,735.148 922.001,735.088 921.925,735.014C921.794,734.885 921.68,734.739 921.586,734.581C921.513,734.462 921.446,734.34 921.384,734.215C921.435,734.162 921.482,734.105 921.523,734.044C921.834,733.575 922.1,733.078 922.318,732.559C922.348,732.481 922.373,732.4 922.391,732.317C922.402,732.267 922.409,732.216 922.409,732.164C922.747,731.452 923.163,730.779 923.649,730.157C923.887,729.851 924.175,729.587 924.502,729.377C924.61,729.311 924.725,729.257 924.845,729.216C925.296,729.071 925.741,728.907 926.18,728.727C926.292,728.68 926.402,728.63 926.51,728.576C926.507,728.844 926.474,729.111 926.412,729.372C926.319,729.779 926.192,730.178 926.033,730.564C925.798,731.137 925.537,731.699 925.252,732.249ZM896.262,776.77C895.616,776.792 894.979,776.62 894.432,776.277C893.894,775.904 893.488,775.371 893.27,774.754C893.109,774.329 892.994,773.887 892.929,773.437C892.876,773.389 892.836,773.33 892.812,773.263C892.804,773.237 892.799,773.211 892.799,773.184C892.8,773.125 892.819,773.067 892.852,773.018C892.874,772.984 892.9,772.953 892.929,772.924C892.929,772.91 892.931,772.896 892.935,772.883C892.941,772.865 892.949,772.848 892.958,772.831C892.973,772.807 892.99,772.783 893.01,772.762C893.042,772.727 893.076,772.693 893.113,772.663C893.226,772.573 893.344,772.492 893.469,772.419C893.627,772.326 893.789,772.238 893.954,772.156C894.135,772.161 894.312,772.203 894.476,772.278C894.796,772.425 895.092,772.617 895.357,772.847C895.882,773.289 896.365,773.779 896.799,774.31C896.924,774.462 897.036,774.623 897.136,774.792C897.187,774.878 897.228,774.969 897.259,775.063C897.276,775.118 897.286,775.175 897.287,775.232L897.287,776.002C897.284,776.119 897.248,776.232 897.182,776.329C897.138,776.396 897.087,776.458 897.03,776.515L897.03,776.77L896.262,776.77ZM911.13,741.138L910.36,741.906L909.847,742.419C909.045,741.841 908.254,741.248 907.474,740.639C907.329,740.524 907.187,740.404 907.05,740.279C907.017,740.249 906.986,740.218 906.956,740.185C906.942,740.17 906.929,740.155 906.916,740.138C906.91,740.13 906.904,740.121 906.899,740.111C906.838,739.985 906.802,739.849 906.791,739.71C906.781,739.604 906.774,739.498 906.772,739.391C906.77,739.341 906.772,739.291 906.78,739.241C906.796,739.145 906.839,739.055 906.904,738.982C906.958,738.921 907.021,738.87 907.092,738.83C907.2,738.769 907.315,738.722 907.435,738.691C907.647,738.636 907.864,738.602 908.082,738.589C908.243,738.578 908.405,738.573 908.567,738.573C908.905,738.57 909.241,738.608 909.57,738.688C910.309,738.845 910.906,739.389 911.13,740.111L911.13,741.138ZM930.356,740.368C931.447,739.008 932.569,737.674 933.721,736.365C934.017,736.032 934.325,735.71 934.644,735.4C934.742,735.306 934.845,735.216 934.951,735.132C934.999,735.094 935.049,735.06 935.101,735.029C935.121,735.018 935.142,735.008 935.164,734.999C935.177,734.994 935.19,734.99 935.204,734.987C935.211,734.986 935.219,734.985 935.227,734.985C935.226,735.054 935.218,735.124 935.201,735.191C935.131,735.463 935.022,735.723 934.877,735.963C934.588,736.451 934.284,736.93 933.967,737.4C933.609,737.956 933.259,738.518 932.919,739.086C932.167,740.208 931.398,741.319 930.613,742.419C930.133,742.435 929.667,742.249 929.33,741.906C929.225,741.81 929.145,741.689 929.098,741.555C929.082,741.502 929.073,741.448 929.073,741.393L930.356,740.368ZM908.309,754.468C908.4,754.47 908.489,754.49 908.572,754.526C908.723,754.591 908.864,754.677 908.991,754.782C909.255,754.996 909.499,755.235 909.72,755.493C909.936,755.75 910.175,755.986 910.434,756.198C910.563,756.305 910.706,756.392 910.858,756.459C910.944,756.496 911.036,756.516 911.13,756.519L910.617,757.031C910.377,757.261 910.076,757.416 909.75,757.477C909.529,757.523 909.304,757.545 909.079,757.544C909.076,757.429 909.04,757.317 908.976,757.222C908.931,757.153 908.88,757.089 908.822,757.031C908.601,756.816 908.444,756.544 908.369,756.246C908.329,756.083 908.309,755.916 908.309,755.749L908.309,754.468ZM891.418,760.106C891.21,760.11 891.003,760.098 890.797,760.071C890.685,760.056 890.575,760.031 890.467,759.994C890.403,759.973 890.342,759.943 890.286,759.906C890.247,759.88 890.212,759.849 890.183,759.813C890.149,759.77 890.126,759.72 890.115,759.666L890.116,759.667C890.116,759.668 890.117,759.668 890.117,759.669C890.118,759.669 890.119,759.669 890.12,759.668C890.121,759.668 890.122,759.667 890.123,759.666C890.124,759.664 890.125,759.663 890.126,759.662C890.127,759.659 890.129,759.656 890.13,759.653C890.133,759.647 890.135,759.64 890.137,759.633C890.144,759.612 890.15,759.592 890.155,759.571C890.171,759.51 890.185,759.449 890.198,759.388C890.211,759.329 890.224,759.269 890.236,759.209C890.268,759.029 890.373,758.87 890.525,758.769C890.67,758.677 890.834,758.618 891.005,758.597C891.133,758.578 891.262,758.568 891.391,758.569C891.401,758.569 891.41,758.57 891.419,758.572C891.433,758.576 891.447,758.58 891.46,758.585C891.498,758.601 891.535,758.62 891.569,758.642C891.648,758.692 891.724,758.747 891.798,758.806C891.97,758.946 892.137,759.091 892.299,759.243C892.512,759.442 892.722,759.645 892.929,759.852C892.442,760.016 891.932,760.102 891.418,760.106ZM947.019,697.301L945.481,697.813L945.736,698.071L945.736,698.583C941.134,704.412 936.67,710.348 932.347,716.388C932.037,716.829 931.735,717.277 931.441,717.73C931.368,717.845 931.298,717.961 931.231,718.079C931.204,718.126 931.18,718.174 931.157,718.223C931.147,718.243 931.139,718.264 931.132,718.285C931.129,718.297 931.126,718.309 931.126,718.322C931.178,718.321 931.229,718.314 931.28,718.299C931.358,718.277 931.433,718.248 931.505,718.211C931.633,718.146 931.756,718.072 931.872,717.988C932.251,717.709 932.61,717.402 932.945,717.072C933.466,716.563 933.968,716.037 934.452,715.494C938.611,710.86 942.605,706.081 946.427,701.165C946.687,700.839 946.952,700.518 947.224,700.202C947.323,700.086 947.425,699.973 947.531,699.864L953.94,690.124L947.019,697.301ZM1077.48,810.615C1074.41,810.433 1071.34,810.346 1068.27,810.353L1062.76,810.353C1060.91,810.36 1059.07,810.531 1057.25,810.866C1060.26,811.156 1063.26,811.542 1066.24,812.022C1068.73,812.454 1071.25,812.667 1073.78,812.657C1076.66,812.684 1079.5,812.072 1082.12,810.866C1081.49,810.854 1080.86,810.826 1080.23,810.783L1077.48,810.615ZM458.623,939.435C461.12,939.55 463.62,939.582 466.119,939.531C466.664,939.527 467.208,939.494 467.749,939.43C467.926,939.41 468.1,939.367 468.265,939.303C468.356,939.267 468.44,939.216 468.513,939.151C468.617,939.057 468.676,938.923 468.673,938.782C468.673,938.663 468.633,938.548 468.56,938.454C468.49,938.367 468.406,938.293 468.31,938.238C468.134,938.135 467.945,938.058 467.748,938.009C467.561,937.961 467.371,937.925 467.18,937.902C466.162,937.79 465.138,937.743 464.115,937.759C462.041,937.759 459.969,937.862 457.906,938.068C457.466,938.113 457.028,938.18 456.595,938.267C456.4,938.307 456.208,938.36 456.021,938.427C455.932,938.459 455.847,938.501 455.767,938.55C455.733,938.571 455.702,938.596 455.674,938.624C455.65,938.648 455.63,938.676 455.615,938.707C455.591,938.762 455.594,938.826 455.624,938.878C455.636,938.9 455.651,938.919 455.668,938.937C455.693,938.962 455.72,938.984 455.75,939.003C455.796,939.032 455.845,939.057 455.895,939.079C455.98,939.114 456.068,939.143 456.157,939.167C456.388,939.225 456.623,939.27 456.86,939.3C457.445,939.37 458.034,939.415 458.623,939.435ZM489.948,982.364L491.358,982.364C491.371,982.364 491.384,982.36 491.395,982.353C491.403,982.347 491.41,982.34 491.416,982.332C491.425,982.32 491.432,982.306 491.438,982.292C491.448,982.266 491.456,982.239 491.462,982.212C491.472,982.158 491.479,982.103 491.482,982.048C491.486,981.983 491.488,981.917 491.488,981.852L491.488,981.339C496.549,976.317 501.494,971.18 506.321,965.932C506.853,965.345 507.374,964.749 507.883,964.142C508.009,963.99 508.131,963.836 508.247,963.677C508.289,963.62 508.328,963.562 508.364,963.501C508.375,963.482 508.385,963.462 508.393,963.442C508.4,963.428 508.405,963.412 508.406,963.396C508.325,963.398 508.245,963.411 508.168,963.436C508.01,963.485 507.857,963.549 507.712,963.628C507.385,963.802 507.07,963.997 506.768,964.21C506.059,964.709 505.372,965.236 504.708,965.792C500.049,969.675 495.597,973.8 491.371,978.151C490.953,978.574 490.555,979.016 490.176,979.474C490.12,979.542 490.068,979.613 490.018,979.685C489.992,979.722 489.969,979.761 489.948,979.801L482.259,988.518L489.948,982.364ZM467.023,980.42C465.683,982.168 464.409,983.966 463.204,985.811C462.47,986.889 461.729,987.963 460.98,989.03C462.597,988.786 464.14,988.185 465.497,987.272C466.311,986.733 467.073,986.121 467.774,985.442C469.891,983.411 471.902,981.272 473.799,979.033C475.927,976.671 478.02,974.278 480.078,971.855C481.632,970.134 482.778,968.086 483.433,965.862C483.674,964.974 483.796,964.058 483.796,963.138C483.797,963.11 483.794,963.082 483.788,963.054C483.781,963.013 483.762,962.976 483.733,962.947C483.703,962.918 483.666,962.899 483.625,962.891C483.551,962.877 483.475,962.882 483.403,962.906C483.325,962.931 483.249,962.965 483.177,963.005C483.031,963.088 482.891,963.181 482.759,963.284C482.483,963.498 482.217,963.725 481.963,963.966C481.759,964.157 481.558,964.351 481.361,964.548L477.515,968.394C473.76,972.171 470.255,976.188 467.023,980.42" style="fill:rgb(255,0,255);fill-rule:nonzero;"/>
        </g>
    </g>
</svg>
